HIERARCHY
ROOT Hips
{
    OFFSET 0.000000 0.000000 0.000000
    CHANNELS 6 Xposition Yposition Zposition Zrotation Xrotation Yrotation
        JOINT Chest
        {
            OFFSET -0.000000 26.978363 -0.000000
            CHANNELS 3 Zrotation Xrotation Yrotation
            JOINT Neck
            {
                OFFSET -0.000000 19.720629 0.000000
                CHANNELS 3 Zrotation Xrotation Yrotation
                JOINT Head
                {
                    OFFSET -0.000000 9.655557 0.000000
                    CHANNELS 3 Zrotation Xrotation Yrotation
                    End Site
                    {
                        OFFSET -0.000000 14.922232 0.000000
                    }
                }
            }
            JOINT LeftCollar
            {
                OFFSET -0.000000 19.720629 0.000000
                CHANNELS 3 Zrotation Xrotation Yrotation
                JOINT LeftShoulder
                {
                    OFFSET 17.555553 -0.000000 0.000000
                    CHANNELS 3 Zrotation Xrotation Yrotation
                    JOINT LeftElbow
                    {
                        OFFSET 22.589397 0.000000 0.000000
                        CHANNELS 3 Zrotation Xrotation Yrotation
                        JOINT LeftWrist
                        {
                            OFFSET 20.401022 0.000000 0.000000
                            CHANNELS 3 Zrotation Xrotation Yrotation
                            End Site
                            {
                                OFFSET 0.000000 -13.166666 0.000000
                            }
                        }
                    }
                }
            }
            JOINT RightCollar
            {
                OFFSET -0.000000 19.720629 0.000000
                CHANNELS 3 Zrotation Xrotation Yrotation
                JOINT RightShoulder
                {
                    OFFSET -17.555553 0.000000 0.000000
                    CHANNELS 3 Zrotation Xrotation Yrotation
                    JOINT RightElbow
                    {
                        OFFSET -22.589397 0.000000 0.000000
                        CHANNELS 3 Zrotation Xrotation Yrotation
                        JOINT RightWrist
                        {
                            OFFSET -20.401022 0.000000 0.000000
                            CHANNELS 3 Zrotation Xrotation Yrotation
                            End Site
                            {
                                OFFSET -0.000000 -13.166666 0.000000
                            }
                        }
                    }
                }
            }
        }
    JOINT LeftHip
    {
        OFFSET 10.533332 0.000000 0.000000
        CHANNELS 3 Zrotation Xrotation Yrotation
        JOINT LeftKnee
        {
            OFFSET -0.000000 -40.048210 0.000000
            CHANNELS 3 Zrotation Xrotation Yrotation
            JOINT LeftAnkle
            {
                OFFSET -0.000000 -36.098888 0.000000
                CHANNELS 3 Zrotation Xrotation Yrotation
                End Site
                {
                    OFFSET -0.000000 -4.388888 14.922232
                }
            }
        }
    }
    JOINT RightHip
    {
        OFFSET -10.533332 0.000000 0.000000
        CHANNELS 3 Zrotation Xrotation Yrotation
        JOINT RightKnee
        {
            OFFSET -0.000000 -40.048210 0.000000
            CHANNELS 3 Zrotation Xrotation Yrotation
            JOINT RightAnkle
            {
                OFFSET -0.000000 -36.098888 0.000000
                CHANNELS 3 Zrotation Xrotation Yrotation
                End Site
                {
                    OFFSET -0.000000 -4.388888 14.922232
                }
            }
        }
    }
}
MOTION
Frames:    9
Frame Time:    0.010000
-26.453703    82.448212    -52.341824    3.306010    -6.380033    -3.598125    -10.278968    9.331186    -8.742514    6.062020    -2.399637    7.560582    4.639187    0.778166    7.400399    -21.379742    1.219638    -6.443906    46.827682    47.081718    -94.004059    17.992680    -13.055736    -70.949371    144.947464    79.058022    58.108009    13.252316    -0.558961    -4.685889    50.723576    37.459118    14.819133    7.142795    5.669448    80.855370    -88.906693    5.522120    -0.759230    7.969215    -16.555029    12.166094    7.713449    24.854172    -4.269874    -11.043727    -0.017857    1.194783    -7.460283    -8.867201    -12.877809    -8.678160    37.528435    -12.543764    16.810450    -19.099550    10.950251    
-26.508707    82.669388    -52.818913    3.314448    -6.251899    -3.017374    -10.275161    9.101123    -8.308703    5.999454    -2.171132    6.932250    4.779165    0.917537    6.778661    -21.616570    1.201391    -6.212876    46.649220    48.022888    -94.350357    18.013725    -12.698857    -69.561768    139.211166    79.480652    64.012573    13.229662    -0.522722    -4.701400    50.959904    37.237274    15.301436    6.737816    5.286102    79.591087    -86.666290    6.424091    -1.178395    7.867073    -16.421968    12.213469    8.221123    26.711920    -3.556552    -11.742023    -0.680406    1.605588    -7.214527    -8.500109    -12.834008    -8.361235    36.211777    -13.184344    16.596668    -18.621147    10.682215    
-26.543926    82.900360    -53.287197    3.276477    -6.070979    -2.422221    -10.217857    8.818464    -7.966567    5.969891    -1.995042    6.343868    4.910445    1.096944    6.191144    -21.893383    1.174552    -5.926879    45.887321    49.150654    -94.221596    17.914410    -12.264083    -68.353493    134.114975    79.337990    69.170891    13.218628    -0.549884    -4.722989    51.276844    37.049160    15.709461    6.258116    4.742387    78.397812    -84.165604    7.198774    -1.365423    7.812808    -16.293905    12.072732    8.653467    28.581549    -2.452781    -12.646324    -1.162583    1.735980    -6.960434    -8.139604    -12.758092    -7.980524    34.829460    -13.870670    16.382418    -18.071699    10.396458    
-26.558554    83.136658    -53.749489    3.201222    -5.849970    -1.806575    -10.121167    8.511062    -7.713577    5.994043    -1.884553    5.797610    5.016485    1.301198    5.640762    -22.195189    1.142118    -5.594605    44.522034    50.428165    -93.557320    17.666269    -11.785332    -67.335861    130.576431    78.685402    72.683350    13.219322    -0.578014    -4.747852    51.618732    36.849602    16.082758    5.850979    4.357741    77.165825    -81.882866    7.758776    -1.548326    7.794605    -16.164677    11.748678    8.991350    30.441950    -1.064515    -13.690718    -1.473303    1.610930    -6.721087    -7.795930    -12.661279    -7.541178    33.425877    -14.575749    16.168604    -17.466223    10.094984    
-26.551455    83.373207    -54.207443    3.099092    -5.603323    -1.168735    -10.000551    8.206183    -7.539676    6.083767    -1.845615    5.293442    5.085872    1.508896    5.127071    -22.506870    1.099993    -5.228416    42.569736    51.803490    -92.337479    17.309715    -11.280780    -66.490730    128.744141    77.607269    74.365654    13.229900    -0.550822    -4.777993    51.923401    36.632236    16.502636    5.577461    4.141314    75.905640    -79.937546    8.099993    -1.666070    7.799463    -16.027145    11.265394    9.231667    32.280544    0.470249    -14.789517    -1.633110    1.277288    -6.516156    -7.475198    -12.553349    -7.052767    32.041042    -15.269227    15.956991    -16.825939    9.777077    
-26.521614    83.604576    -54.661690    2.981204    -5.345421    -0.512775    -9.872723    7.927804    -7.429447    6.238952    -1.877871    4.828076    5.117224    1.696156    4.648765    -22.810829    1.049860    -4.843084    40.058434    53.212471    -90.562355    16.856884    -10.764657    -65.806374    128.359787    76.238686    74.535545    13.234879    -0.571091    -4.815364    52.223309    36.505722    16.919786    5.316485    3.883941    74.735397    -78.212097    8.283587    -1.632397    7.815195    -15.872851    10.664729    9.386204    34.088722    2.003030    -15.856302    -1.669434    0.794065    -6.360547    -7.180603    -12.438724    -6.526769    30.709332    -15.921823    15.750304    -16.176413    9.436869    
-26.468504    83.825508    -55.111950    2.858616    -5.090381    0.151604    -9.756249    7.694950    -7.361874    6.459435    -1.976061    4.400340    5.112287    1.844787    4.205012    -23.089731    0.986008    -4.448702    37.047356    54.589680    -88.273865    16.342892    -10.260235    -65.247856    129.015366    74.680359    73.617233    13.239058    -0.551592    -4.851703    52.464691    36.387142    17.380938    5.260626    3.892506    73.537033    -77.134155    8.262367    -1.568014    7.831802    -15.690104    10.000768    9.478447    35.857403    3.393632    -16.820944    -1.611140    0.224378    -6.263523    -6.911710    -12.313855    -5.974651    29.457033    -16.510685    15.552056    -15.543037    9.064014    
-26.392281    84.031189    -55.557621    2.740754    -4.850815    0.811421    -9.666044    7.518783    -7.312318    6.736496    -2.128859    4.004539    5.078965    1.940773    3.791123    -23.329248    0.915100    -4.055558    33.628273    55.874966    -85.552971    15.791975    -9.777754    -64.793930    130.362946    73.041328    72.004395    13.232686    -0.585437    -4.879827    52.698627    36.346432    17.809174    5.310229    3.903083    72.456657    -76.462410    8.147760    -1.320023    7.842666    -15.464814    9.328172    9.536993    37.574711    4.527359    -17.642986    -1.483369    -0.370025    -6.227621    -6.665315    -12.169441    -5.407929    28.300453    -17.022850    15.365809    -14.947378    8.647239    
-26.293886    84.217476    -55.998577    2.634131    -4.635537    1.453656    -9.611836    7.400620    -7.254764    7.062504    -2.318297    3.633325    5.023460    1.975200    3.401301    -23.521275    0.841634    -3.666500    29.971165    57.022675    -82.562996    15.253722    -9.351784    -64.401871    132.088531    71.406219    70.027603    13.227475    -0.545283    -4.892137    52.868225    36.247437    18.252415    5.633808    4.241411    71.357376    -76.408012    7.904875    -0.977267    7.844717    -15.183742    8.691522    9.588966    39.224766    5.328885    -18.316931    -1.302157    -0.932737    -6.248528    -6.438384    -11.996435    -4.839882    27.245840    -17.457333    15.195266    -14.403235    8.181900    
